# xmcd
#
# Track frame offsets: 
#        150
#        6928
#        22636
#        39882
#        49660
#        66997
#        87275
#        110744
#        126583
#        150344
#        169475
#        180160
#        202560
#        219204
#        236827
#        250507
#        273905
#
# Disc length: 4205 seconds
#
# Revision: 0
# Processed by: cddbd v1.5.2PL0 Copyright (c) Steve Scherf et al.
# Submitted via: ExactAudioCopy v0.99pb3
#
DISCID=d1106b11
DTITLE=Random Abiladeze - Brutally Honest
DYEAR=2008
DGENRE=Hip-Hop
TTITLE0=Brutal Intro
TTITLE1=A New Day
TTITLE2=Pay Attention (ft. Young Aundee)
TTITLE3=Insomnia
TTITLE4=Wake Up Call
TTITLE5=Reality Check
TTITLE6=I Loved You (ft. Butterscotch)
TTITLE7=Don't Stop It
TTITLE8=Lay the Foundation
TTITLE9=Step 2 the Plate
TTITLE10=Slowge Boosh
TTITLE11=True Master (ft. Butterscotch)
TTITLE12=Never Give Up
TTITLE13=Touch a Soul
TTITLE14=Read [poem]
TTITLE15=Money Hungry
TTITLE16=Take a Look
EXTD=
EXTT0=
EXTT1=
EXTT2=
EXTT3=
EXTT4=
EXTT5=
EXTT6=
EXTT7=
EXTT8=
EXTT9=
EXTT10=
EXTT11=
EXTT12=
EXTT13=
EXTT14=
EXTT15=
EXTT16=
PLAYORDER=
